<svg xmlns="http://www.w3.org/2000/svg" viewBox="0 0 454 240"><title>404-w</title><path d="M134.34,20.68H99.72c-1.74,0-3.14,1.1-3.14,2.45v77.4a2.93,2.93,0,0,1-2.93,2.93H62.52a2.93,2.93,0,0,1-2.93-2.93V23.13c0-1.35-1.4-2.45-3.14-2.45H21.83c-1.74,0-3.15,1.1-3.15,2.45V141.92c0,1.35,1.41,2.44,3.15,2.44H96.4v75.57a5.44,5.44,0,0,0,5.44,5.43h29.77a5.43,5.43,0,0,0,5.43-5.43V143.16a2.05,2.05,0,0,0,.45-1.24V23.13C137.49,21.78,136.08,20.68,134.34,20.68Z" style="fill:#fff"/><path d="M429.34,20.68H394.72c-1.74,0-3.14,1.1-3.14,2.45v77.4a2.93,2.93,0,0,1-2.93,2.93H357.52a2.93,2.93,0,0,1-2.93-2.93V23.13c0-1.35-1.4-2.45-3.14-2.45H316.83c-1.74,0-3.15,1.1-3.15,2.45V141.92c0,1.35,1.41,2.44,3.15,2.44H391.4v75.57a5.44,5.44,0,0,0,5.44,5.43h29.77a5.43,5.43,0,0,0,5.43-5.43V143.16a2.05,2.05,0,0,0,.45-1.24V23.13C432.49,21.78,431.08,20.68,429.34,20.68Z" style="fill:#fff"/><path d="M279.77,20.69a5.82,5.82,0,0,0-1.32-.17h-105a5.31,5.31,0,0,0-1.26.16h0a5.72,5.72,0,0,0-5.72,5.72V219.29a5.72,5.72,0,0,0,5.72,5.71h0a5.87,5.87,0,0,0,1.26.15h105a5.31,5.31,0,0,0,1.32-.17,5.43,5.43,0,0,0,5.27-5.42V26.12A5.44,5.44,0,0,0,279.77,20.69ZM211.91,61.16h27.63A4.86,4.86,0,0,1,244.4,66V179.66a4.85,4.85,0,0,1-4.86,4.86H211.91a4.86,4.86,0,0,1-4.87-4.86V66A4.87,4.87,0,0,1,211.91,61.16Z" style="fill:#fff"/></svg>