<svg xmlns="http://www.w3.org/2000/svg" viewBox="0 0 500 294.15"><title>logo-w-full</title><path d="M11.45,16.79V57.22a3.8,3.8,0,0,0,3.91,3.7h54a3.81,3.81,0,0,1,3.91,3.71v132a3.8,3.8,0,0,0,3.9,3.7h43a3.8,3.8,0,0,0,3.91-3.7V16.79a3.81,3.81,0,0,0-3.91-3.71H15.36A3.81,3.81,0,0,0,11.45,16.79Z" style="fill:#fff"/><ellipse cx="168.9" cy="41.38" rx="29.83" ry="28.29" style="fill:#fff"/><rect x="438.4" y="76.68" width="40.64" height="123.68" rx="5.43" ry="5.43" style="fill:#fff"/><path d="M265.34,76.68H230.72c-1.74,0-3.14,1.1-3.14,2.45v77.4a2.93,2.93,0,0,1-2.93,2.93H193.52a2.93,2.93,0,0,1-2.93-2.93V79.13c0-1.35-1.4-2.45-3.14-2.45H152.83c-1.74,0-3.15,1.1-3.15,2.45V197.92c0,1.35,1.41,2.44,3.15,2.44H265.34c1.74,0,3.15-1.09,3.15-2.44V79.13C268.49,77.78,267.08,76.68,265.34,76.68Z" style="fill:#fff"/><path d="M409.7,76.68H375.08c-1.74,0-3.14,1.1-3.14,2.45v77.4a2.93,2.93,0,0,1-2.93,2.93H337.88a2.93,2.93,0,0,1-2.93-2.93V79.13c0-1.35-1.4-2.45-3.14-2.45H297.19c-1.74,0-3.15,1.1-3.15,2.45V197.92c0,1.35,1.41,2.44,3.15,2.44h35.94v79.91a5.43,5.43,0,0,0,5.43,5.43h29.77a5.43,5.43,0,0,0,5.43-5.43V200.36H409.7c1.74,0,3.14-1.09,3.14-2.44V79.13C412.84,77.78,411.44,76.68,409.7,76.68Z" style="fill:#fff"/><ellipse cx="458.72" cy="41.38" rx="29.83" ry="28.29" style="fill:#fff"/></svg>